<?xml version="1.0" standalone="no"?><!DOCTYPE svg PUBLIC "-//W3C//DTD SVG 1.1//EN" "http://www.w3.org/Graphics/SVG/1.1/DTD/svg11.dtd"><svg class="icon" width="200px" height="200.00px" viewBox="0 0 1024 1024" version="1.1" xmlns="http://www.w3.org/2000/svg"><path d="M870.4 853.333333H128c-55.466667 0-98.133333-42.666667-98.133333-98.133333v-21.333333c0-29.866667 17.066667-51.2 42.666666-59.733334l409.6-166.4v-68.266666c0-12.8 8.533333-21.333333 21.333334-21.333334s21.333333 8.533333 21.333333 21.333334V512l405.333333 162.133333c34.133333 17.066667 38.4 42.666667 38.4 59.733334v25.6c0 51.2-42.666667 93.866667-98.133333 93.866666z m-366.933333-307.2l-418.133334 170.666667c-8.533333 4.266667-12.8 12.8-12.8 17.066667v21.333333c0 29.866667 25.6 55.466667 55.466667 55.466667h742.4c29.866667 0 55.466667-25.6 55.466667-55.466667v-25.6c0-8.533333 0-12.8-12.8-21.333333l-409.6-162.133334z" fill="#2c2c2c" /><path d="M499.2 460.8c-72.533333 0-128-55.466667-128-128s55.466667-128 128-128 128 55.466667 128 128c0 12.8-8.533333 21.333333-21.333333 21.333333s-21.333333-8.533333-21.333334-21.333333c0-46.933333-38.4-85.333333-85.333333-85.333333s-85.333333 38.4-85.333333 85.333333 38.4 85.333333 85.333333 85.333333c12.8 0 21.333333 8.533333 21.333333 21.333334s-8.533333 21.333333-21.333333 21.333333z" fill="#2c2c2c" /></svg>