<?xml version="1.0" standalone="no"?><!DOCTYPE svg PUBLIC "-//W3C//DTD SVG 1.1//EN" "http://www.w3.org/Graphics/SVG/1.1/DTD/svg11.dtd"><svg class="icon" width="200px" height="200.00px" viewBox="0 0 1024 1024" version="1.1" xmlns="http://www.w3.org/2000/svg"><path d="M170.666667 364.088889h73.955555v250.311111c0 17.066667 11.377778 28.444444 28.444445 28.444444s28.444444-11.377778 28.444444-28.444444V506.311111h341.333333v102.4c0 17.066667 11.377778 28.444444 28.444445 28.444445s28.444444-11.377778 28.444444-28.444445V364.088889h91.022223c17.066667 0 28.444444-11.377778 28.444444-28.444445s-11.377778-28.444444-28.444444-28.444444h-91.022223V210.488889c0-39.822222 28.444444-79.644444 68.266667-79.644445s79.644444 28.444444 79.644444 68.266667v11.377778c0 17.066667 11.377778 28.444444 28.444445 28.444444 22.755556 0 34.133333-11.377778 34.133333-28.444444 0-73.955556-56.888889-130.844444-125.155555-136.533333-73.955556-5.688889-136.533333 51.2-136.533334 125.155555v108.088889h-341.333333V210.488889c0-39.822222 34.133333-73.955556 73.955556-73.955556 39.822222 0 79.644444 34.133333 79.644444 79.644445 0 17.066667 11.377778 28.444444 28.444444 28.444444s28.444444-17.066667 28.444445-34.133333c0-73.955556-56.888889-130.844444-130.844445-130.844445-73.955556 0-130.844444 56.888889-130.844444 130.844445v96.711111H170.666667c-11.377778 5.688889-22.755556 17.066667-22.755556 34.133333 0 11.377778 11.377778 22.755556 22.755556 22.755556z m136.533333 0h341.333333v79.644444h-341.333333V364.088889zM876.088889 728.177778c-22.755556 0-45.511111-5.688889-62.577778-22.755556-56.888889-45.511111-136.533333-45.511111-193.422222 0-34.133333 28.444444-91.022222 28.444444-125.155556 0-56.888889-45.511111-136.533333-45.511111-187.733333 0-17.066667 17.066667-39.822222 22.755556-62.577778 22.755556-22.755556 0-45.511111-5.688889-62.577778-22.755556-28.444444-22.755556-62.577778-34.133333-96.711111-34.133333-17.066667 0-28.444444 11.377778-28.444444 28.444444s11.377778 28.444444 28.444444 28.444445c22.755556 0 45.511111 5.688889 62.577778 22.755555 28.444444 22.755556 62.577778 34.133333 96.711111 34.133334 34.133333 0 68.266667-11.377778 96.711111-34.133334 34.133333-28.444444 91.022222-28.444444 125.155556 0 56.888889 45.511111 136.533333 45.511111 187.733333 0 34.133333-28.444444 91.022222-28.444444 125.155556 0 28.444444 22.755556 62.577778 34.133333 96.711111 34.133334 17.066667 0 28.444444-11.377778 28.444444-28.444445s-11.377778-28.444444-28.444444-28.444444zM876.088889 870.4c-22.755556 0-45.511111-5.688889-62.577778-22.755556-56.888889-45.511111-136.533333-45.511111-193.422222 0-34.133333 28.444444-91.022222 28.444444-125.155556 0-56.888889-45.511111-136.533333-45.511111-187.733333 0-17.066667 17.066667-39.822222 22.755556-62.577778 22.755556-22.755556 0-45.511111-5.688889-62.577778-22.755556-28.444444-22.755556-62.577778-34.133333-96.711111-34.133333-17.066667 0-28.444444 11.377778-28.444444 28.444445s11.377778 28.444444 28.444444 28.444444c22.755556 0 45.511111 5.688889 62.577778 22.755556 28.444444 22.755556 62.577778 34.133333 96.711111 34.133333 34.133333 0 68.266667-11.377778 96.711111-34.133333 34.133333-28.444444 91.022222-28.444444 125.155556 0 56.888889 45.511111 136.533333 45.511111 187.733333 0 34.133333-28.444444 91.022222-28.444444 125.155556 0 28.444444 22.755556 62.577778 34.133333 96.711111 34.133333 17.066667 0 28.444444-11.377778 28.444444-28.444445s-11.377778-28.444444-28.444444-28.444444z" fill="#333333" /></svg>