<?xml version="1.0" standalone="no"?><!DOCTYPE svg PUBLIC "-//W3C//DTD SVG 1.1//EN" "http://www.w3.org/Graphics/SVG/1.1/DTD/svg11.dtd"><svg class="icon" width="200px" height="200.00px" viewBox="0 0 1024 1024" version="1.1" xmlns="http://www.w3.org/2000/svg"><path d="M512 102.4c-226.2016 0-409.6 183.38816-409.6 409.6 0 226.24256 183.3984 409.6 409.6 409.6 226.23232 0 409.6-183.35744 409.6-409.6 0-226.21184-183.36768-409.6-409.6-409.6z m0 750.94016c-188.52864 0-341.32992-152.80128-341.32992-341.34016 0-188.5184 152.80128-341.32992 341.32992-341.32992S853.32992 323.4816 853.32992 512c0 188.53888-152.80128 341.34016-341.32992 341.34016z"  /><path d="M546.12992 307.2H409.6v409.6h68.27008V580.25984h68.25984c75.39712 0 136.54016-61.12256 136.54016-136.52992C682.67008 368.3328 621.52704 307.2 546.12992 307.2z m0 204.8h-68.25984V375.47008h68.25984a68.27008 68.27008 0 0 1 0 136.52992z"  /></svg>