<?xml version="1.0" standalone="no"?><!DOCTYPE svg PUBLIC "-//W3C//DTD SVG 1.1//EN" "http://www.w3.org/Graphics/SVG/1.1/DTD/svg11.dtd"><svg class="icon" width="200px" height="200.00px" viewBox="0 0 1024 1024" version="1.1" xmlns="http://www.w3.org/2000/svg"><path d="M99.730286 788.041143h824.539428c66.358857 0 99.730286-31.817143 99.730286-99.712V243.638857c0-67.894857-33.371429-99.712-99.730286-99.712H99.730286C33.353143 143.908571 0 175.725714 0 243.638857v444.690286c0 67.894857 33.371429 99.712 99.730286 99.712z m1.152-62.464c-26.386286 0-38.4-10.861714-38.4-38.034286V244.809143c0-27.556571 12.013714-38.4 38.4-38.4h822.217143c26.788571 0 38.418286 10.843429 38.418285 38.4V687.542857c0 27.172571-11.629714 38.034286-38.4 38.034286z m693.394285 170.331428c0-20.169143-16.274286-36.461714-36.077714-36.461714h-493.165714c-19.803429 0-35.712 16.274286-35.712 36.461714s15.908571 36.48 35.693714 36.48h493.165714a36.352 36.352 0 0 0 36.096-36.48z" /></svg>